<svg xmlns="http://www.w3.org/2000/svg" viewBox="0 0 400 300" role="img" aria-label="Elefant">
  <defs>
    <linearGradient id="bg" x1="0" y1="0" x2="0" y2="1"><stop offset="0" stop-color="#dff3f7"/><stop offset="1" stop-color="#f4fbf2"/></linearGradient>
  </defs>
  <rect width="400" height="300" fill="url(#bg)"/><g fill="#fff" opacity="0.9"><ellipse cx="80" cy="60" rx="38" ry="14"/><ellipse cx="106" cy="52" rx="24" ry="14"/><ellipse cx="318" cy="44" rx="34" ry="12"/><ellipse cx="296" cy="38" rx="20" ry="12"/></g><path d="M0 236 C 90 216, 170 224, 230 220 C 300 216, 350 212, 400 224 L400 300 L0 300 Z" fill="#9fd68a"/>
  <path d="M0 262 C 100 248, 190 256, 270 250 C 330 246, 370 246, 400 252 L400 300 L0 300 Z" fill="#7cc26a"/>
  <ellipse cx="214" cy="262" rx="110" ry="14" fill="#3f7f34" opacity="0.35"/>
  <g fill="#8e98a3"><rect x="172" y="190" width="30" height="70" rx="12"/><rect x="262" y="190" width="30" height="70" rx="12"/></g>
  <g fill="#a3adb7"><rect x="200" y="196" width="30" height="64" rx="12"/><rect x="290" y="192" width="28" height="68" rx="12"/></g>
  <path d="M316 150 q22 10 18 40" stroke="#8e98a3" stroke-width="6" fill="none" stroke-linecap="round"/>
  <ellipse cx="248" cy="166" rx="84" ry="58" fill="#a3adb7"/>
  <circle cx="150" cy="138" r="54" fill="#a3adb7"/>
  <path d="M112 156 C 96 190, 98 226, 116 244 C 126 252, 140 246, 132 236 C 118 220, 120 196, 136 172 Z" fill="#a3adb7"/>
  <path d="M120 170 q-6 20 12 30" stroke="#fff" stroke-width="9" fill="none" stroke-linecap="round"/>
  <ellipse cx="196" cy="140" rx="42" ry="50" fill="#8e98a3"/><ellipse cx="200" cy="142" rx="30" ry="38" fill="#f2c7d0" opacity="0.55"/>
  <circle cx="134" cy="126" r="7" fill="#2f2a26"/><circle cx="136.45" cy="123.55" r="2.4" fill="#fff"/><ellipse cx="150" cy="150" rx="9" ry="5" fill="#f2a6b8" opacity="0.6"/>
</svg>
