<svg xmlns="http://www.w3.org/2000/svg" viewBox="0 0 400 300" role="img" aria-label="Taube">
  <defs>
    <linearGradient id="bg" x1="0" y1="0" x2="0" y2="1"><stop offset="0" stop-color="#dff3f7"/><stop offset="1" stop-color="#f4fbf2"/></linearGradient>
  </defs>
  <rect width="400" height="300" fill="url(#bg)"/><g fill="#fff" opacity="0.9"><ellipse cx="80" cy="60" rx="38" ry="14"/><ellipse cx="106" cy="52" rx="24" ry="14"/><ellipse cx="318" cy="44" rx="34" ry="12"/><ellipse cx="296" cy="38" rx="20" ry="12"/></g><path d="M0 236 C 90 216, 170 224, 230 220 C 300 216, 350 212, 400 224 L400 300 L0 300 Z" fill="#9fd68a"/>
  <path d="M0 262 C 100 248, 190 256, 270 250 C 330 246, 370 246, 400 252 L400 300 L0 300 Z" fill="#7cc26a"/>
  <ellipse cx="210" cy="258" rx="80" ry="10" fill="#3f7f34" opacity="0.35"/>
  <g stroke="#e57a8a" stroke-width="5" stroke-linecap="round"><path d="M196 222 v30 l-10 6 M196 252 l8 6"/><path d="M222 222 v30 l-10 6 M222 252 l8 6"/></g>
  <path d="M270 176 L 340 150 L 334 196 Z" fill="#8a8ca3"/>
  <ellipse cx="216" cy="182" rx="74" ry="48" fill="#b8b9c9"/>
  <path d="M206 160 q46 -10 80 24 q-44 14 -80 -24 z" fill="#9c9db3"/>
  <path d="M226 168 l30 10 M224 182 l28 8" stroke="#8a8ca3" stroke-width="4" stroke-linecap="round"/>
  <path d="M146 140 C 150 170, 176 186, 200 176 C 190 160, 176 146, 160 132 Z" fill="#6fb3a0"/>
  <path d="M152 156 C 160 178, 184 188, 200 178 C 186 176, 170 168, 156 150 Z" fill="#a17ab8" opacity="0.7"/>
  <circle cx="150" cy="122" r="30" fill="#b8b9c9"/>
  <path d="M122 124 l-18 6 l18 4 z" fill="#3e4152"/><ellipse cx="126" cy="122" rx="4" ry="3" fill="#fff"/>
  <circle cx="146" cy="116" r="8" fill="#e57a5a"/><circle cx="146" cy="116" r="5" fill="#2f2a26"/><circle cx="147.75" cy="114.25" r="1.7" fill="#fff"/>
</svg>
