<svg xmlns="http://www.w3.org/2000/svg" viewBox="0 0 400 300" role="img" aria-label="Vater">
  <defs><radialGradient id="bg" cx="50%" cy="45%" r="75%"><stop offset="0" stop-color="#fff4e0"/><stop offset="1" stop-color="#ffd9a0"/></radialGradient></defs><rect width="400" height="300" fill="url(#bg)"/><circle cx="60" cy="60" r="36" fill="#ffe8c4"/><circle cx="350" cy="240" r="48" fill="#ffe8c4"/>
  <!-- father -->
  <path d="M70 300 C 74 236, 110 212, 160 212 C 210 212, 246 236, 250 300 Z" fill="#2f6f9f"/>
  <path d="M140 212 l20 26 l20 -26 z" fill="#fff"/>
  <rect x="146" y="184" width="28" height="32" fill="#e3ad84"/>
  <ellipse cx="160" cy="128" rx="54" ry="62" fill="#efc49d"/>
  <ellipse cx="106" cy="132" rx="10" ry="15" fill="#efc49d"/><ellipse cx="214" cy="132" rx="10" ry="15" fill="#efc49d"/>
  <path d="M106 118 C 102 76, 132 62, 160 62 C 192 62, 220 76, 214 118 C 206 96, 190 90, 160 90 C 130 90, 114 96, 106 118 Z" fill="#3b2416"/>
  <path d="M108 140 C 110 188, 140 196, 160 196 C 180 196, 210 188, 212 140 C 202 166, 186 170, 160 170 C 134 170, 118 166, 108 140 Z" fill="#3b2416"/>
  <circle cx="142" cy="126" r="5.5" fill="#2f2a26"/><circle cx="178" cy="126" r="5.5" fill="#2f2a26"/>
  <path d="M130 110 q11 -5 22 0 M168 110 q11 -5 22 0" stroke="#3b2416" stroke-width="4" fill="none" stroke-linecap="round"/>
  <path d="M148 162 q12 8 24 0" stroke="#c9534f" stroke-width="3" fill="none" stroke-linecap="round"/>
  <!-- arm around the child -->
  <path d="M232 250 C 250 236, 268 236, 284 244" stroke="#2f6f9f" stroke-width="22" fill="none" stroke-linecap="round"/>
  <!-- child -->
  <path d="M250 300 C 252 262, 272 248, 296 248 C 320 248, 340 262, 342 300 Z" fill="#f2a83b"/>
  <ellipse cx="296" cy="208" rx="34" ry="38" fill="#f5cfaa"/>
  <path d="M262 200 C 260 172, 280 162, 296 162 C 314 162, 334 172, 330 200 C 322 186, 310 182, 296 182 C 282 182, 270 186, 262 200 Z" fill="#5a3a22"/>
  <circle cx="284" cy="208" r="4" fill="#2f2a26"/><circle cx="308" cy="208" r="4" fill="#2f2a26"/>
  <path d="M286 226 q10 7 20 0" stroke="#c9534f" stroke-width="3" fill="none" stroke-linecap="round"/>
  <circle cx="276" cy="220" r="5" fill="#f4a3a3" opacity=".6"/><circle cx="316" cy="220" r="5" fill="#f4a3a3" opacity=".6"/>
</svg>
